<svg width="1200" height="630" viewBox="0 0 1200 630" xmlns="http://www.w3.org/2000/svg">
  <defs>
    <linearGradient id="blogBg" x1="0%" y1="0%" x2="100%" y2="100%">
      <stop offset="0%" style="stop-color:#0f172a;stop-opacity:1" />
      <stop offset="100%" style="stop-color:#1e293b;stop-opacity:1" />
    </linearGradient>
  </defs>
  
  <!-- Background -->
  <rect width="1200" height="630" fill="url(#blogBg)"/>
  
  <!-- Blog icon -->
  <rect x="100" y="200" width="80" height="80" rx="12" fill="#3b82f6" opacity="0.8"/>
  <rect x="120" y="220" width="40" height="4" rx="2" fill="#ffffff"/>
  <rect x="120" y="235" width="30" height="3" rx="1.5" fill="#ffffff" opacity="0.7"/>
  <rect x="120" y="248" width="35" height="3" rx="1.5" fill="#ffffff" opacity="0.7"/>
  <rect x="120" y="261" width="25" height="3" rx="1.5" fill="#ffffff" opacity="0.7"/>
  
  <!-- Main content -->
  <text x="220" y="250" fill="#ffffff" font-family="Arial, sans-serif" font-size="48" font-weight="bold">
    Blog Post
  </text>
  
  <text x="220" y="300" fill="#94a3b8" font-family="Arial, sans-serif" font-size="28">
    by Ayman Idrees
  </text>
  
  <text x="220" y="350" fill="#64748b" font-family="Arial, sans-serif" font-size="20">
    Fullstack Developer • Technical Insights
  </text>
  
  <!-- Decorative code elements -->
  <rect x="800" y="150" width="300" height="200" rx="8" fill="#1e293b" stroke="#334155" stroke-width="1"/>
  <rect x="820" y="170" width="60" height="8" rx="4" fill="#22c55e" opacity="0.6"/>
  <rect x="820" y="190" width="80" height="8" rx="4" fill="#3b82f6" opacity="0.6"/>
  <rect x="820" y="210" width="45" height="8" rx="4" fill="#f59e0b" opacity="0.6"/>
  <rect x="820" y="230" width="90" height="8" rx="4" fill="#ef4444" opacity="0.6"/>
  <rect x="820" y="250" width="70" height="8" rx="4" fill="#8b5cf6" opacity="0.6"/>
  
  <!-- Tech stack indicators -->
  <circle cx="950" cy="450" r="25" fill="#61dafb" opacity="0.8"/>
  <text x="950" y="458" text-anchor="middle" fill="#0f172a" font-family="Arial, sans-serif" font-size="16" font-weight="bold">R</text>
  
  <circle cx="1020" cy="450" r="25" fill="#000000" opacity="0.8"/>
  <text x="1020" y="458" text-anchor="middle" fill="#ffffff" font-family="Arial, sans-serif" font-size="14" font-weight="bold">N</text>
  
  <circle cx="1090" cy="450" r="25" fill="#3178c6" opacity="0.8"/>
  <text x="1090" y="458" text-anchor="middle" fill="#ffffff" font-family="Arial, sans-serif" font-size="16" font-weight="bold">T</text>
</svg>
