<svg width="1200" height="630" viewBox="0 0 1200 630" xmlns="http://www.w3.org/2000/svg">
  <defs>
    <linearGradient id="projectsBg" x1="0%" y1="0%" x2="100%" y2="100%">
      <stop offset="0%" style="stop-color:#581c87;stop-opacity:1" />
      <stop offset="100%" style="stop-color:#7c3aed;stop-opacity:1" />
    </linearGradient>
  </defs>
  
  <!-- Background -->
  <rect width="1200" height="630" fill="url(#projectsBg)"/>
  
  <!-- Project cards -->
  <rect x="100" y="150" width="180" height="120" rx="12" fill="#ffffff" opacity="0.15"/>
  <rect x="120" y="170" width="30" height="30" rx="6" fill="#22c55e" opacity="0.8"/>
  <rect x="120" y="210" width="80" height="8" rx="4" fill="#ffffff" opacity="0.7"/>
  <rect x="120" y="230" width="60" height="6" rx="3" fill="#ffffff" opacity="0.5"/>
  <rect x="120" y="245" width="40" height="6" rx="3" fill="#ffffff" opacity="0.5"/>
  
  <rect x="320" y="150" width="180" height="120" rx="12" fill="#ffffff" opacity="0.15"/>
  <rect x="340" y="170" width="30" height="30" rx="6" fill="#3b82f6" opacity="0.8"/>
  <rect x="340" y="210" width="90" height="8" rx="4" fill="#ffffff" opacity="0.7"/>
  <rect x="340" y="230" width="70" height="6" rx="3" fill="#ffffff" opacity="0.5"/>
  <rect x="340" y="245" width="50" height="6" rx="3" fill="#ffffff" opacity="0.5"/>
  
  <rect x="540" y="150" width="180" height="120" rx="12" fill="#ffffff" opacity="0.15"/>
  <rect x="560" y="170" width="30" height="30" rx="6" fill="#f59e0b" opacity="0.8"/>
  <rect x="560" y="210" width="85" height="8" rx="4" fill="#ffffff" opacity="0.7"/>
  <rect x="560" y="230" width="65" height="6" rx="3" fill="#ffffff" opacity="0.5"/>
  <rect x="560" y="245" width="45" height="6" rx="3" fill="#ffffff" opacity="0.5"/>
  
  <!-- Main content -->
  <text x="600" y="350" text-anchor="middle" fill="#ffffff" font-family="Arial, sans-serif" font-size="64" font-weight="bold">
    Projects
  </text>
  
  <text x="600" y="410" text-anchor="middle" fill="#e9d5ff" font-family="Arial, sans-serif" font-size="32">
    by Ayman Idrees
  </text>
  
  <text x="600" y="460" text-anchor="middle" fill="#c4b5fd" font-family="Arial, sans-serif" font-size="24">
    Fullstack Development Portfolio
  </text>
  
  <!-- Tech stack indicators -->
  <rect x="450" y="500" width="300" height="60" rx="30" fill="#ffffff" opacity="0.1"/>
  
  <circle cx="500" cy="530" r="20" fill="#61dafb" opacity="0.9"/>
  <text x="500" y="537" text-anchor="middle" fill="#0f172a" font-family="Arial, sans-serif" font-size="14" font-weight="bold">R</text>
  
  <circle cx="550" cy="530" r="20" fill="#000000" opacity="0.9"/>
  <text x="550" y="537" text-anchor="middle" fill="#ffffff" font-family="Arial, sans-serif" font-size="12" font-weight="bold">N</text>
  
  <circle cx="600" cy="530" r="20" fill="#68a063" opacity="0.9"/>
  <text x="600" y="537" text-anchor="middle" fill="#ffffff" font-family="Arial, sans-serif" font-size="12" font-weight="bold">JS</text>
  
  <circle cx="650" cy="530" r="20" fill="#3178c6" opacity="0.9"/>
  <text x="650" y="537" text-anchor="middle" fill="#ffffff" font-family="Arial, sans-serif" font-size="14" font-weight="bold">T</text>
  
  <circle cx="700" cy="530" r="20" fill="#ff6b6b" opacity="0.9"/>
  <text x="700" y="537" text-anchor="middle" fill="#ffffff" font-family="Arial, sans-serif" font-size="14" font-weight="bold">+</text>
  
  <!-- Decorative code elements -->
  <rect x="800" y="350" width="300" height="150" rx="8" fill="#ffffff" opacity="0.05"/>
  <rect x="820" y="370" width="60" height="6" rx="3" fill="#22c55e" opacity="0.6"/>
  <rect x="820" y="385" width="80" height="6" rx="3" fill="#3b82f6" opacity="0.6"/>
  <rect x="820" y="400" width="45" height="6" rx="3" fill="#f59e0b" opacity="0.6"/>
  <rect x="820" y="415" width="90" height="6" rx="3" fill="#ef4444" opacity="0.6"/>
  <rect x="820" y="430" width="70" height="6" rx="3" fill="#8b5cf6" opacity="0.6"/>
  <rect x="820" y="445" width="55" height="6" rx="3" fill="#06b6d4" opacity="0.6"/>
  <rect x="820" y="460" width="75" height="6" rx="3" fill="#84cc16" opacity="0.6"/>
</svg>
